<svg width="48" height="48" viewBox="0 0 48 48" fill="none" xmlns="http://www.w3.org/2000/svg">
<g clip-path="url(#clip0_385_3230)">
<path d="M47.738 14.4599C47.758 12.1386 47.658 9.82189 47.438 7.50989C47.258 5.65389 47.438 2.83788 46.16 1.83988C44.7686 0.908974 43.158 0.358085 41.488 0.241885C34.6097 -0.131725 27.7147 -0.0716061 20.844 0.421885C19.7879 0.599213 18.8084 1.08653 18.03 1.82188C16.51 3.67588 16.432 14.2979 16.392 16.6939C16.4014 16.8676 16.4771 17.0311 16.6034 17.1507C16.7297 17.2703 16.897 17.337 17.071 17.337C17.245 17.337 17.4123 17.2703 17.5386 17.1507C17.6649 17.0311 17.7406 16.8676 17.75 16.6939C17.75 14.9779 18.27 4.21589 19.386 2.93789C19.878 2.58189 20.446 2.34388 21.044 2.23788C24.038 1.91989 39.012 2.23788 41.19 2.45789C41.982 2.54722 42.76 2.70722 43.524 2.93789C45.322 3.55789 44.824 3.69789 45.262 7.68989C45.788 11.3919 45.914 15.1399 45.642 18.8699C45.5995 20.1005 45.4388 21.3241 45.162 22.5239C44.762 22.2439 46.28 23.3439 35.458 24.3399C35.2989 24.3399 35.1463 24.4031 35.0337 24.5156C34.9212 24.6281 34.858 24.7808 34.858 24.9399C34.858 25.099 34.9212 25.2516 35.0337 25.3641C35.1463 25.4767 35.2989 25.5399 35.458 25.5399L37.018 25.4199C36.898 26.6599 37.248 27.8959 37.994 28.8939C36.9481 28.9632 35.9152 29.1648 34.92 29.4939C34.7844 29.5214 34.6624 29.595 34.5748 29.7022C34.4872 29.8093 34.4394 29.9435 34.4394 30.0819C34.4394 30.2203 34.4872 30.3544 34.5748 30.4616C34.6624 30.5688 34.7844 30.6423 34.92 30.6699C36.9731 31.3994 39.2149 31.3994 41.268 30.6699C41.4246 30.6414 41.5663 30.5588 41.6683 30.4365C41.7703 30.3143 41.8262 30.1601 41.8262 30.0009C41.8262 29.8417 41.7703 29.6875 41.6683 29.5652C41.5663 29.443 41.4246 29.3604 41.268 29.3319L39.772 29.1119C39.8519 27.814 39.5079 26.5254 38.792 25.4399C40.272 25.2999 45.762 24.8199 46.58 23.5819C47.398 22.3439 47.718 15.9579 47.738 14.4599Z" fill="white"/>
<path d="M32.784 14.578C33.2373 14.646 33.67 14.7794 34.082 14.978C35.2147 15.6127 36.1161 16.5912 36.656 17.772C36.656 18.192 38.174 18.312 38.174 17.572C37.9169 16.5151 37.4243 15.53 36.7331 14.6901C36.0418 13.8503 35.1698 13.1775 34.182 12.722C38.174 10.126 36.398 3.41802 31.566 3.73602C30.468 3.6663 29.3763 3.94855 28.4497 4.54176C27.5231 5.13497 26.8098 6.00822 26.4134 7.0346C26.0171 8.06098 25.9584 9.187 26.2459 10.249C26.5334 11.311 27.1521 12.2537 28.012 12.94C28.272 13.12 28.232 12.94 27.532 13.44C26.7697 13.8884 26.1073 14.4881 25.5855 15.2022C25.0637 15.9162 24.6936 16.7295 24.498 17.592C24.498 18.512 25.158 18.552 25.896 18.032C26.4306 16.7194 27.4237 15.6455 28.6907 15.0102C29.9577 14.3749 31.4123 14.2213 32.784 14.578ZM28.012 10.426C27.412 8.11002 28.612 6.15202 31.586 5.99202C31.9565 5.97563 32.3264 6.0369 32.6719 6.1719C33.0173 6.30691 33.3307 6.51267 33.5919 6.77596C33.8532 7.03926 34.0564 7.35428 34.1887 7.70078C34.321 8.04729 34.3793 8.41763 34.36 8.78802C34.6 12.782 28.89 13.64 28.012 10.426ZM41.728 18.81C37.736 18.43 23.28 18.81 22.86 18.81C22.7221 18.8355 22.5975 18.9085 22.5079 19.0163C22.4182 19.124 22.3691 19.2598 22.3691 19.4C22.3691 19.5402 22.4182 19.676 22.5079 19.7838C22.5975 19.8916 22.7221 19.9645 22.86 19.99C29.14 20.446 35.44 20.534 41.728 20.25C43.006 20.25 43.724 20.508 43.724 19.79C44.104 18.79 42.886 18.87 41.728 18.81ZM13.456 20.488C0.120001 21.586 2.916 37.518 11.46 36.68C11.557 36.696 11.6564 36.6907 11.7512 36.6644C11.846 36.6381 11.9339 36.5916 12.0089 36.5279C12.0839 36.4643 12.1441 36.3851 12.1854 36.2958C12.2267 36.2066 12.2481 36.1094 12.2481 36.011C12.2481 35.9127 12.2267 35.8155 12.1854 35.7262C12.1441 35.637 12.0839 35.5578 12.0089 35.4941C11.9339 35.4305 11.846 35.3839 11.7512 35.3577C11.6564 35.3314 11.557 35.3261 11.46 35.342C4.972 35.662 3.134 23.362 13.716 22.742C20.484 22.144 22.66 33.626 13.716 35.662C13.6001 35.6845 13.4934 35.7406 13.4093 35.8234C13.3252 35.9061 13.2673 36.0119 13.243 36.1274C13.2186 36.2429 13.2289 36.363 13.2725 36.4727C13.3161 36.5823 13.391 36.6767 13.488 36.744C13.6188 36.834 13.7798 36.8685 13.936 36.84C25.036 35.022 22.94 19.948 13.456 20.488Z" fill="white"/>
<path d="M16.032 30.2701C16.032 29.8501 15.632 28.4941 14.894 29.5921C14.3367 30.1521 13.7447 30.6714 13.118 31.1501C12.326 30.6901 11.5073 30.2834 10.662 29.9301C10.462 29.9301 10.202 30.0501 10.182 30.3501C10.2278 30.8837 10.4278 31.3925 10.7577 31.8144C11.0876 32.2362 11.5332 32.553 12.04 32.7261C12.496 32.8781 12.98 32.9201 13.458 32.8461C14.894 32.5461 16.032 30.4501 16.032 30.2701ZM7.708 36.8001C5.95489 37.4594 4.39591 38.5493 3.1747 39.9694C1.95349 41.3894 1.10933 43.094 0.719998 44.9261C0.579998 45.5261 0.439998 46.2641 0.299998 47.1021C0.269124 47.1819 0.25568 47.2674 0.260571 47.3529C0.265461 47.4383 0.288572 47.5217 0.328351 47.5975C0.368131 47.6732 0.42366 47.7396 0.49121 47.7922C0.55876 47.8447 0.636768 47.8822 0.719998 47.9021C1.438 48.1001 1.418 47.3621 2.296 45.5441C2.90666 44.4134 3.572 43.3154 4.292 42.2501C5.19273 40.5527 6.53006 39.1263 8.166 38.1181C8.33146 38.05 8.46454 37.921 8.5379 37.7578C8.61126 37.5946 8.61933 37.4095 8.56044 37.2405C8.50155 37.0715 8.38019 36.9315 8.22127 36.8492C8.06236 36.767 7.87798 36.7487 7.706 36.7981M30.866 24.8601C30.3569 24.6089 29.7967 24.4783 29.229 24.4783C28.6613 24.4783 28.1011 24.6089 27.592 24.8601C25.1968 27.098 22.9178 29.4571 20.764 31.9281C20.7049 31.978 20.6562 32.0391 20.6207 32.1078C20.5852 32.1765 20.5636 32.2515 20.5571 32.3286C20.5506 32.4057 20.5593 32.4833 20.5828 32.557C20.6063 32.6307 20.6441 32.699 20.694 32.7581C20.7439 32.8172 20.805 32.8659 20.8737 32.9014C20.9424 32.9369 21.0174 32.9585 21.0945 32.965C21.1716 32.9715 21.2492 32.9628 21.3229 32.9393C21.3966 32.9158 21.4649 32.878 21.524 32.8281C23.7773 30.6654 26.1393 28.6281 28.61 26.7161C28.87 26.5761 30.886 26.2961 30.208 28.5341C29.746 29.8606 29.1155 31.1223 28.332 32.2881C24.998 37.6581 23.76 38.0381 23.72 40.1141C23.72 41.4521 24.398 43.1481 24.518 47.3221C24.513 47.4144 24.5268 47.5067 24.5587 47.5934C24.5906 47.6802 24.6398 47.7595 24.7033 47.8266C24.7668 47.8937 24.8434 47.9471 24.9283 47.9836C25.0132 48.0201 25.1046 48.039 25.197 48.039C25.2894 48.039 25.3808 48.0201 25.4657 47.9836C25.5506 47.9471 25.6271 47.8937 25.6907 47.8266C25.7542 47.7595 25.8034 47.6802 25.8353 47.5934C25.8672 47.5067 25.881 47.4144 25.876 47.3221C25.976 43.5081 25.436 41.1121 25.516 40.1941C25.616 38.8941 27.352 37.9181 30.228 33.5061C31.1444 32.1643 31.8637 30.6981 32.364 29.1521C32.744 27.6761 32.344 25.3201 30.866 24.8601Z" fill="white"/>
</g>
<defs>
<clipPath id="clip0_385_3230">
<rect width="48" height="48" fill="white"/>
</clipPath>
</defs>
</svg>
