<svg width="48" height="48" viewBox="0 0 48 48" fill="none" xmlns="http://www.w3.org/2000/svg">
<g clip-path="url(#clip0_385_3236)">
<path d="M47.942 29.1921C48.1362 23.3638 47.8352 17.5295 47.042 11.7521C47.0741 11.3394 47.0741 10.9248 47.042 10.5121C46.764 9.17409 42.748 8.51409 41.05 8.35409C40.8938 8.3371 40.7372 8.38204 40.6138 8.47927C40.4904 8.5765 40.41 8.71826 40.39 8.87409C40.29 10.1941 42.39 8.87409 45.606 10.8741C45.5687 12.2935 45.6827 13.7128 45.946 15.1081C46.426 19.5821 46.166 22.6801 45.946 34.5661C43.5716 34.0485 41.1392 33.8467 38.712 33.9661C34.1875 33.9351 29.7688 35.3335 26.086 37.9621C27.446 32.6881 30.762 31.2701 35.436 29.5921C35.966 29.4261 36.52 29.3521 37.076 29.3721C37.1861 29.6147 37.3777 29.811 37.6175 29.9271C37.8573 30.0431 38.1301 30.0715 38.3887 30.0074C38.6472 29.9432 38.8751 29.7905 39.0328 29.5758C39.1905 29.3611 39.2681 29.098 39.252 28.8321C38.492 8.63409 39.252 5.79809 38.932 3.92009C38.612 2.04209 37.254 1.82009 35.356 1.54009C33.0247 1.29515 30.6704 1.67927 28.5379 2.6525C26.4054 3.62573 24.5725 5.15252 23.23 7.07409C23.07 7.41409 22.13 9.49209 22.05 9.71209C20.6858 8.67184 19.1113 7.94154 17.436 7.57209C13.1324 6.61787 8.62696 7.33267 4.83 9.57209C4.09029 10.0533 3.45702 10.681 2.96926 11.4164C2.48149 12.1519 2.14958 12.9794 1.994 13.8481C0.234 20.9601 -0.824 23.0601 0.814 38.1821C0.814 38.8021 0.814 39.7621 1.414 40.3401C1.54848 40.4523 1.70589 40.5338 1.87519 40.5787C2.04449 40.6236 2.22157 40.6309 2.394 40.6001V42.1381C2.654 45.7341 7.428 43.5381 12.682 43.0981C17.036 42.7581 17.516 43.6961 21.372 45.9341C22.9591 46.5304 24.6788 46.6826 26.346 46.3741C27.7126 46.168 29.0085 45.6326 30.122 44.8141C43.288 35.1261 42.828 46.4541 45.906 38.3221C46.046 37.9488 46.1327 37.5621 46.166 37.1621C46.321 37.263 46.4996 37.3216 46.6842 37.3321C46.8688 37.3425 47.053 37.3045 47.2184 37.2219C47.3838 37.1392 47.5247 37.0146 47.627 36.8607C47.7294 36.7067 47.7897 36.5286 47.802 36.3441C47.9873 33.9614 48.034 31.5774 47.942 29.1921ZM23.73 10.7721C29.72 -0.495911 37.154 4.46009 37.474 4.78009C37.634 5.38009 36.734 18.9261 36.694 20.1641L36.874 27.0561C34.6583 27.2953 32.5169 27.9947 30.5872 29.1095C28.6575 30.2244 26.982 31.7301 25.668 33.5301C24.668 35.2481 25.008 35.4281 24.828 34.2901C24.788 34.0901 23.648 10.9341 23.728 10.7741M2.154 19.4421C2.734 17.2261 3.452 11.5921 5.37 10.9521C10.964 9.07409 16.558 8.61409 21.75 11.4521C22.368 13.1661 22.646 14.9841 22.57 16.8061C22.57 20.9001 22.69 33.2661 23.17 36.9841C19.9897 35.5349 16.5144 34.85 13.022 34.9841C10.2593 35.2322 7.55781 35.9421 5.03 37.0841C4.79 37.0841 3.67 38.2221 2.872 38.6621C2.872 38.3821 2.652 38.0621 2.632 37.9021C1.992 32.4681 1.054 25.3161 2.152 19.4421M43.226 39.0821C37.472 36.7821 32.898 40.0401 28.822 42.9561C27.9508 43.5387 26.9696 43.9369 25.9388 44.1261C24.9079 44.3152 23.8493 44.2914 22.828 44.0561C15.096 38.5821 12.1 41.1981 5.108 42.2561C4.748 42.2561 4.468 42.4361 4.288 42.2561C4.108 42.0761 3.908 40.9201 3.448 40.2601C4.308 39.8201 5.448 39.1201 5.728 39.0401C8.664 38.1221 11.98 35.9641 19.172 37.9621C24.486 39.3421 24.206 41.6581 26.004 40.6801C28.682 39.2401 32.538 34.9261 44.604 36.3841C44.4844 36.5307 44.4206 36.7149 44.424 36.9041C43.244 39.0221 43.304 38.8821 43.224 39.0801" fill="white"/>
<path d="M7.288 17.9839C9.286 17.7039 9.126 16.7239 11.762 16.7239C13.2324 16.831 14.683 17.1268 16.078 17.6039C16.458 17.4639 16.738 17.3039 16.738 16.9239C16.738 16.0659 15.538 15.1879 13.72 14.9279C8.466 13.9479 7.966 16.4659 6.968 16.9259C6.87664 17.0011 6.80957 17.1017 6.77523 17.215C6.7409 17.3282 6.74083 17.4491 6.77503 17.5624C6.80924 17.6757 6.87619 17.7764 6.96747 17.8517C7.05874 17.9271 7.17026 17.9738 7.288 17.9859M7.288 25.0359C9.286 24.7559 9.126 23.7779 11.762 23.7779C13.232 23.8839 14.682 24.1799 16.078 24.6579C16.458 24.5379 16.738 24.3579 16.738 23.9779C16.738 23.1179 15.538 22.2579 13.72 21.9799C8.466 20.9999 7.966 23.4999 6.968 23.9779C6.86969 23.9678 6.77041 23.9821 6.67897 24.0196C6.58753 24.0571 6.50677 24.1166 6.44385 24.1928C6.38094 24.269 6.33783 24.3596 6.31834 24.4564C6.29886 24.5533 6.30361 24.6535 6.33217 24.7481C6.36073 24.8427 6.41222 24.9288 6.48206 24.9987C6.5519 25.0687 6.63793 25.1203 6.73251 25.1489C6.82708 25.1776 6.92727 25.1825 7.02418 25.1631C7.12109 25.1437 7.21171 25.1007 7.288 25.0379M7.288 32.1679C9.286 31.8879 9.126 30.9099 11.762 30.9099C13.2313 31.0254 14.6808 31.321 16.078 31.7899C16.458 31.6699 16.738 31.4899 16.738 31.1299C16.738 30.2499 15.538 29.3899 13.72 29.1319C8.466 28.1519 7.966 30.6719 6.968 31.1299C6.84248 31.1115 6.71435 31.1334 6.60213 31.1926C6.48992 31.2518 6.39944 31.3452 6.34378 31.4592C6.28811 31.5732 6.27014 31.7019 6.29248 31.8268C6.31481 31.9517 6.37628 32.0662 6.468 32.1539C6.57738 32.2598 6.72296 32.3202 6.87523 32.3228C7.0275 32.3254 7.17506 32.2701 7.288 32.1679Z" fill="white"/>
</g>
<defs>
<clipPath id="clip0_385_3236">
<rect width="48" height="48" fill="white"/>
</clipPath>
</defs>
</svg>
