<svg width="58" height="48" viewBox="0 0 58 48" fill="none" xmlns="http://www.w3.org/2000/svg">
<g clip-path="url(#clip0_385_2884)">
<path fill-rule="evenodd" clip-rule="evenodd" d="M30.1464 16.9041C30.8515 17.7268 31.3908 18.6782 31.7345 19.7057C32.2752 21.5 32.3816 23.3972 32.0449 25.2407C31.7081 27.0842 30.9378 28.8212 29.7976 30.3084C29.693 30.4513 29.648 30.6292 29.6723 30.8046C29.6965 30.98 29.788 31.1392 29.9274 31.2483C30.0668 31.3575 30.2432 31.4081 30.4193 31.3896C30.5954 31.371 30.7574 31.2847 30.871 31.1489C35.1212 26.3746 34.9486 23.2871 33.6267 19.2032C32.8747 17.6064 31.6276 16.2947 30.0706 15.4633C29.9104 15.4716 29.7597 15.5417 29.6502 15.6588C29.5406 15.7758 29.4806 15.9308 29.4828 16.0911C29.5124 16.5571 29.8671 16.5879 30.1464 16.9041Z" fill="white"/>
<path fill-rule="evenodd" clip-rule="evenodd" d="M35.3967 12.4634C36.6013 13.7531 37.5474 15.2618 38.1836 16.9079C39.1164 19.9978 39.2154 23.2794 38.4705 26.4199C37.7084 29.4305 36.2689 32.2273 34.2618 34.5972C34.15 34.7305 34.0935 34.9015 34.104 35.0752C34.1144 35.2488 34.191 35.4119 34.318 35.5308C34.445 35.6497 34.6128 35.7153 34.7867 35.7143C34.9607 35.7133 35.1276 35.6457 35.2532 35.5253C37.6262 33.1203 39.4189 30.2053 40.4948 27.0026C41.8492 22.6351 41.1423 20.4666 39.9911 16.4082C39.4782 14.5885 36.1073 10.8849 35.1927 10.9575C35.1126 10.9591 35.0336 10.9767 34.9603 11.0093C34.8871 11.0419 34.8211 11.0888 34.7663 11.1474C34.7116 11.2059 34.669 11.2748 34.6413 11.35C34.6136 11.4253 34.6013 11.5053 34.605 11.5854C34.5917 12.0386 34.929 11.9709 35.3967 12.4634Z" fill="white"/>
<path fill-rule="evenodd" clip-rule="evenodd" d="M41.4187 9.28504C42.9396 10.9132 44.134 12.8181 44.9373 14.8962C46.1149 18.7972 46.2399 22.9402 45.2995 26.9051C44.3372 30.706 42.5199 34.237 39.986 37.229C39.8448 37.3973 39.7735 37.6132 39.7867 37.8325C39.7999 38.0517 39.8966 38.2575 40.0569 38.4076C40.2173 38.5577 40.429 38.6407 40.6487 38.6394C40.8683 38.6381 41.0791 38.5527 41.2377 38.4007C44.2335 35.3644 46.4968 31.6842 47.8551 27.6408C49.565 22.1268 48.6726 19.3891 47.2192 14.2654C46.5717 11.968 42.3159 7.29217 41.1613 7.38385C41.0601 7.38581 40.9603 7.40802 40.8679 7.44919C40.7754 7.49036 40.6921 7.54963 40.6229 7.62352C40.5538 7.69741 40.5001 7.78441 40.4651 7.87939C40.4302 7.97436 40.4146 8.07538 40.4193 8.17648C40.4024 8.74869 40.8283 8.66319 41.4187 9.28504Z" fill="white"/>
<path fill-rule="evenodd" clip-rule="evenodd" d="M48.1275 6.74592C49.9846 8.7217 51.4607 11.0166 52.476 13.5063C53.9885 18.1704 54.2542 23.0921 53.2464 27.7722C52.2078 32.2571 50.1434 36.3974 47.2105 39.8777C47.0471 40.0734 46.9682 40.3277 46.9901 40.5884C47.012 40.849 47.133 41.0961 47.3282 41.2788C47.5234 41.4615 47.7779 41.5659 48.0394 41.5706C48.3009 41.5753 48.5495 41.4798 48.734 41.3039C52.2158 37.784 54.8071 33.4793 56.3104 28.7177C58.191 22.2204 57.051 18.9452 55.1755 12.8218C54.3396 10.0763 49.1396 4.40552 47.7673 4.48175C47.6468 4.48122 47.5287 4.50478 47.4197 4.55104C47.3108 4.59729 47.2133 4.66531 47.133 4.75107C47.0527 4.83683 46.9913 4.93859 46.9523 5.05035C46.9133 5.1621 46.8976 5.28159 46.9061 5.40174C46.9021 6.08053 47.4069 5.99105 48.1275 6.74592Z" fill="white"/>
<path fill-rule="evenodd" clip-rule="evenodd" d="M12.984 2.78788C7.47787 5.50386 3.2343 10.2426 1.14 16.0139C0.027793 19.5688 -0.274655 23.3277 0.254836 27.0147C0.784327 30.7018 2.13233 34.2236 4.2 37.3219C6.29032 40.3988 9.06999 42.9454 12.3178 44.7588C15.5656 46.5723 19.1919 47.6027 22.908 47.7679C25.6999 47.9492 28.4992 47.5544 31.132 46.6079C33.7421 45.6622 36.1266 44.1835 38.134 42.2659C38.2029 42.194 38.2536 42.1066 38.2816 42.0111C38.3096 41.9155 38.3142 41.8146 38.295 41.7169C38.2757 41.6192 38.2333 41.5276 38.1711 41.4498C38.109 41.372 38.029 41.3103 37.938 41.2699C37.8267 41.2227 37.7038 41.2103 37.5853 41.2342C37.4668 41.2581 37.3583 41.3173 37.274 41.4039C35.3656 43.1614 33.0999 44.4857 30.632 45.2859C28.1833 46.059 25.5999 46.3111 23.048 46.0259C19.6367 45.7822 16.3282 44.7522 13.3813 43.0167C10.4345 41.2811 7.92934 38.887 6.062 36.0219C4.19463 33.1927 2.9769 29.9852 2.49624 26.6295C2.01558 23.2739 2.28392 19.8535 3.282 16.6139C5.15355 11.3556 8.97922 7.02066 13.964 4.50988C18.8842 1.92606 24.5871 1.25631 29.972 2.62988C31.1265 2.93852 32.2563 3.33295 33.352 3.80988C34.4395 4.30021 35.4833 4.88231 36.472 5.54988C36.5464 5.60283 36.6308 5.64024 36.72 5.65987C36.8092 5.67951 36.9014 5.68097 36.9912 5.66417C37.081 5.64737 37.1665 5.61266 37.2426 5.56209C37.3186 5.51153 37.3837 5.44616 37.434 5.36988C37.4862 5.29712 37.523 5.2145 37.5422 5.12705C37.5614 5.03961 37.5626 4.94917 37.5458 4.86124C37.529 4.77331 37.4944 4.68972 37.4442 4.61556C37.3941 4.5414 37.3294 4.47823 37.254 4.42988C36.22 3.65988 35.114 2.98988 33.954 2.42988C32.8007 1.88455 31.6133 1.43121 30.392 1.06988C24.5772 -0.539597 18.3714 0.0735626 12.984 2.78988" fill="white"/>
<path fill-rule="evenodd" clip-rule="evenodd" d="M7.822 18.0139C7.00504 20.5623 6.77319 23.262 7.1437 25.9124C7.5142 28.5627 8.47752 31.0953 9.962 33.3219C11.4603 35.5245 13.4569 37.3426 15.7897 38.6287C18.1225 39.9148 20.7257 40.6327 23.388 40.7239C26.7679 40.9612 30.1239 40.0058 32.872 38.0239C32.9982 37.9283 33.083 37.788 33.109 37.6318C33.1351 37.4756 33.1003 37.3154 33.012 37.1839C32.9159 37.0522 32.7717 36.9636 32.6107 36.9374C32.4498 36.9112 32.285 36.9495 32.152 37.0439C29.6419 38.7524 26.6082 39.5176 23.588 39.2039C21.2287 38.9802 18.9527 38.2158 16.9368 36.9698C14.9208 35.7239 13.2192 34.0301 11.964 32.0199C10.6615 30.0758 9.80652 27.867 9.46068 25.5526C9.11483 23.2382 9.28674 20.8759 9.964 18.6359C11.2059 14.9905 13.8075 11.9654 17.226 10.1919C20.6643 8.34812 24.6675 7.85592 28.45 8.81195C29.01 8.97195 29.57 9.13195 30.13 9.35195C30.684 9.56828 31.2255 9.81532 31.752 10.0919C31.9141 10.1777 32.1035 10.1965 32.2792 10.1441C32.455 10.0917 32.6032 9.97247 32.692 9.81195C32.734 9.73315 32.7601 9.64686 32.7688 9.55798C32.7775 9.4691 32.7685 9.37939 32.7425 9.29396C32.7165 9.20853 32.674 9.12906 32.6173 9.06008C32.5605 8.9911 32.4908 8.93397 32.412 8.89194C31.832 8.57195 31.252 8.29195 30.672 8.03195C30.0747 7.78528 29.468 7.57195 28.852 7.39194C24.693 6.1758 20.2288 6.56847 16.346 8.49195C12.374 10.437 9.31629 13.8534 7.822 18.0159" fill="white"/>
<path fill-rule="evenodd" clip-rule="evenodd" d="M14.644 20.0158C13.9758 21.9486 13.8854 24.0344 14.384 26.0178C14.686 27.3043 15.2215 28.5245 15.964 29.6178C16.9149 30.9712 18.1761 32.0772 19.642 32.8434C21.1079 33.6096 22.736 34.0137 24.39 34.0218C24.4688 34.0272 24.548 34.017 24.6228 33.9918C24.6977 33.9665 24.7669 33.9268 24.8263 33.8747C24.8858 33.8227 24.9344 33.7594 24.9694 33.6886C25.0043 33.6177 25.0249 33.5406 25.03 33.4618C25.0426 33.3444 25.0191 33.226 24.9626 33.1224C24.9062 33.0188 24.8194 32.9348 24.714 32.8818C24.6439 32.8474 24.5679 32.827 24.49 32.8218C23.1142 32.6614 21.7938 32.1862 20.6312 31.4333C19.4686 30.6803 18.495 29.6697 17.786 28.4798C17.242 27.5551 16.8503 26.5489 16.626 25.4998C16.2317 23.9574 16.2732 22.3359 16.746 20.8158C17.2495 19.2437 18.202 17.8532 19.486 16.8158C20.818 15.7278 22.426 15.0358 24.128 14.8138C24.2174 14.8062 24.3045 14.7811 24.3841 14.7397C24.4638 14.6984 24.5345 14.6417 24.5921 14.5729C24.6497 14.5041 24.6932 14.4246 24.7199 14.3389C24.7467 14.2533 24.7562 14.1631 24.748 14.0738C24.7432 13.9834 24.7198 13.8949 24.6794 13.8139C24.6389 13.7329 24.5822 13.661 24.5128 13.6029C24.4434 13.5447 24.3628 13.5015 24.2759 13.4758C24.1891 13.4502 24.0979 13.4427 24.008 13.4538C21.991 13.5833 20.0507 14.2762 18.408 15.4538C16.7459 16.5865 15.4404 18.1688 14.644 20.0158Z" fill="white"/>
<path fill-rule="evenodd" clip-rule="evenodd" d="M25.49 22.3159C25.4722 22.1704 25.4317 22.0287 25.37 21.8959C25.2927 21.6785 25.186 21.4785 25.05 21.2959C24.6584 20.6864 24.0487 20.2496 23.3457 20.0748C22.6426 19.9001 21.8994 20.0006 21.268 20.3559C20.6256 20.6975 20.1132 21.2408 19.8097 21.9021C19.5062 22.5633 19.4283 23.306 19.588 24.0159C19.6453 24.2903 19.7466 24.5537 19.888 24.7959C20.0616 25.1106 20.2769 25.4006 20.528 25.6579L21.468 26.4179C21.8183 26.6321 22.2122 26.765 22.6207 26.8065C23.0292 26.848 23.4418 26.7972 23.828 26.6579C24.538 26.3259 25.122 25.7699 25.488 25.0779C25.7223 23.979 25.7001 23.3651 25.49 22.3159ZM21.7828 22.6603C21.7071 22.9161 21.7553 23.2521 21.808 23.4399C21.8607 23.6277 22.7595 25.0119 23.428 24.7399C24.468 24.2399 24.468 23.4399 24.468 23.3999C24.468 23.3599 23.628 21.0599 22.228 22.0199C22.0146 22.1799 21.8584 22.4045 21.7828 22.6603Z" fill="white"/>
</g>
<defs>
<clipPath id="clip0_385_2884">
<rect width="48" height="58" fill="white" transform="matrix(0 -1 1 0 0 48)"/>
</clipPath>
</defs>
</svg>
