<svg width="54" height="54" viewBox="0 0 54 54" fill="none" xmlns="http://www.w3.org/2000/svg">
<g clip-path="url(#clip0_397_6445)">
<path d="M19.3951 24.1808C20.1277 23.7636 20.768 23.2022 21.2774 22.5304C21.7867 21.8587 22.1544 21.0905 22.3584 20.2726C22.5647 19.4915 22.6113 18.6768 22.4954 17.8772C22.3796 17.0777 22.1037 16.3098 21.6842 15.6193C21.2648 14.9289 20.7103 14.3301 20.0541 13.8589C19.3979 13.3877 18.6534 13.0537 17.8651 12.8768C16.9242 12.6169 15.9305 12.6169 14.9896 12.8768C13.9977 13.1341 13.0775 13.6139 12.2986 14.2797C11.5197 14.9456 10.9026 15.78 10.4941 16.7198C10.0526 17.7342 9.91743 18.8556 10.1053 19.9458C10.2932 21.0361 10.796 22.0475 11.5516 22.8556C12.5669 23.8565 13.8446 24.5499 15.2371 24.8558C16.6591 25.1393 18.1374 24.9008 19.3951 24.1808ZM12.6496 17.4398C12.8768 16.7767 13.2486 16.1724 13.7382 15.6708C14.2277 15.1692 14.8227 14.7828 15.4801 14.5396C16.2579 14.2577 17.1099 14.2577 17.8876 14.5396C18.4386 14.6344 18.9601 14.8557 19.4112 15.186C19.8622 15.5163 20.2306 15.9466 20.4874 16.4432C20.7442 16.9398 20.8825 17.4892 20.8913 18.0482C20.9001 18.6072 20.7792 19.1606 20.5381 19.6651C20.3674 20.2221 20.0778 20.7356 19.6893 21.1698C19.3009 21.6041 18.8228 21.949 18.2881 22.1806C17.4781 22.4663 16.5916 22.4731 15.7726 22.2031C14.8726 21.9781 14.0469 21.5146 13.3921 20.8553C12.9619 20.4072 12.6695 19.845 12.5498 19.2354C12.4302 18.6259 12.4882 17.9948 12.7171 17.4173L12.6496 17.4398Z" fill="white"/>
<path d="M17.3026 38.6326C17.8606 38.7301 18.4231 38.7901 18.9901 38.8126C19.3366 38.8351 19.6876 38.7969 20.0228 38.7001C20.4886 38.5696 20.9026 38.3041 21.2153 37.9351C21.6563 37.3614 21.9781 36.7044 22.1581 36.0001C22.4281 35.1024 22.4281 34.1146 22.6981 33.2371C22.7707 32.897 22.9621 32.5939 23.2381 32.3821C23.3618 32.2707 23.5079 32.187 23.6666 32.1365C23.8253 32.0861 23.9929 32.0701 24.1583 32.0896C25.1981 32.5349 26.2829 32.8668 27.3938 33.0796C28.0193 33.0639 28.6268 32.8681 29.1466 32.5171C29.9116 31.9411 30.6158 31.2976 31.2593 30.5866C31.6958 30.1906 32.1008 29.7631 32.4743 29.3041C32.7376 28.9554 32.9153 28.5459 32.9896 28.1139C33.0505 27.7021 32.9959 27.2815 32.8321 26.8989C32.5891 26.3321 32.2547 25.8091 31.8421 25.3509C31.3372 24.7464 30.8863 24.099 30.4943 23.4159C30.3489 23.2183 30.2509 22.9899 30.208 22.7484C30.1651 22.5069 30.1784 22.2587 30.2468 22.0231C30.4628 21.5889 30.7688 21.2064 31.1468 20.9004C31.5743 20.5509 32.0393 20.2584 32.5418 20.0229C32.8996 19.8429 33.3946 19.7529 33.7996 19.5504C34.1425 19.4018 34.4377 19.1612 34.6523 18.8551C34.9358 18.4569 35.1136 17.9934 35.1698 17.5051C35.2373 16.9666 35.2373 16.4281 35.1698 15.8896L34.8548 13.9771C34.8548 13.5294 34.7198 12.9669 34.6073 12.4741C34.5514 12.1766 34.4529 11.8886 34.3148 11.6191C34.0793 11.1695 33.6987 10.8127 33.2348 10.6066C32.5656 10.3584 31.8603 10.2215 31.1468 10.2016C30.6434 10.1564 30.154 10.0119 29.7068 9.77639C29.3022 9.62595 28.9455 9.3695 28.6741 9.03389C28.5294 8.6984 28.476 8.33057 28.5195 7.96779C28.563 7.60502 28.7017 7.26021 28.9216 6.96839C29.3671 6.28439 29.6798 5.52164 29.8441 4.71839C29.9063 4.15358 29.7872 3.5836 29.5041 3.09094C29.221 2.59827 28.7884 2.20845 28.2691 1.97789C27.418 1.46378 26.5143 1.04213 25.5736 0.720144C25.036 0.514464 24.4524 0.459992 23.8861 0.562644C22.2481 1.05764 21.4381 2.81039 20.0903 3.61814C19.6801 3.87072 19.1953 3.97403 18.7178 3.91064C18.3393 3.87155 17.9804 3.72299 17.6851 3.48314C17.37 3.21053 17.1169 2.87376 16.9426 2.49539C16.9426 2.22539 16.7401 1.66289 16.5601 1.30289C16.4843 1.06837 16.3458 0.859055 16.1596 0.697644C15.6892 0.36371 15.117 0.204544 14.5418 0.247644C13.2247 0.434334 11.9439 0.821305 10.7438 1.39514C10.263 1.56195 9.83909 1.86126 9.52101 2.25856C9.20293 2.65586 9.00362 3.13497 8.94606 3.64064C8.92806 4.60139 9.02481 5.55989 9.23856 6.49589C9.33685 6.81467 9.3575 7.15233 9.29879 7.48071C9.24008 7.80909 9.10372 8.11867 8.90106 8.38364C8.24856 9.08114 7.50606 8.87864 6.78831 8.65364C6.06831 8.37689 5.31006 8.20364 4.54056 8.13614C4.18784 8.13298 3.83933 8.21279 3.52313 8.36913C3.20694 8.52546 2.93194 8.75395 2.72031 9.03614C1.86051 10.0132 1.21717 11.1611 0.832561 12.4044C0.654025 12.9002 0.579854 13.4275 0.6147 13.9533C0.649547 14.4791 0.792659 14.992 1.03506 15.4599C1.80006 16.6074 3.01506 17.2126 3.80031 18.2454C4.03431 18.5559 4.18731 18.9204 4.25031 19.3029C4.2937 19.5457 4.28185 19.7952 4.21563 20.0328C4.14941 20.2704 4.03053 20.49 3.86781 20.6754C3.16881 21.4044 2.41956 22.0779 1.62006 22.6959C0.846177 23.3039 0.292928 24.1487 0.045061 25.1011C-0.055497 25.6706 0.0149706 26.257 0.247561 26.7864C0.695311 27.6211 1.27131 28.3794 1.95756 29.0341C2.65956 29.9641 3.40881 30.8551 4.20531 31.7071C4.73856 32.2336 5.42031 32.5846 6.16056 32.7196C7.47769 32.5922 8.77917 32.336 10.0463 31.9546C10.3092 31.8671 10.5934 31.8671 10.8563 31.9546C10.998 32.0335 11.1201 32.1431 11.2135 32.2756C11.307 32.408 11.3695 32.5598 11.3963 32.7196C11.4728 33.8536 11.7068 34.9741 12.0938 36.0451C12.5686 36.8214 13.2863 37.4221 14.1368 37.7529C15.1493 38.1804 16.2158 38.4729 17.3048 38.6304M13.7993 31.6171C13.4741 30.8777 12.9023 30.2741 12.1816 29.9094C11.4916 29.5499 10.7038 29.4236 9.93606 29.5494C8.81106 29.7069 7.68606 30.4494 6.56331 30.3594C6.27081 30.3594 5.97831 30.0219 5.66331 29.7069C4.87806 28.9419 4.13781 27.9316 3.71031 27.4591C3.33096 27.0951 2.97759 26.7049 2.65281 26.2914C2.47281 26.0214 2.27031 25.7514 2.33781 25.4814C2.50656 24.8446 2.89806 24.2844 3.44031 23.9086C4.25931 23.3169 5.01531 22.6396 5.68806 21.8859C6.02297 21.4732 6.25977 20.9898 6.3806 20.4721C6.50143 19.9545 6.50312 19.4163 6.38556 18.8979C6.26599 18.1883 5.96355 17.5222 5.50806 16.9651C4.54056 16.0426 3.35031 15.5026 2.61006 14.4046C2.27256 13.9321 2.47506 13.1446 2.74506 12.3796C3.01731 11.5629 3.43581 10.8046 3.98031 10.1341C4.34031 9.75165 4.79031 9.86414 5.26281 9.97664C6.05031 10.2526 6.85881 10.4401 7.68831 10.5391C8.13471 10.5614 8.58017 10.4795 8.98943 10.2999C9.3987 10.1202 9.76054 9.8478 10.0463 9.50414C10.3652 9.13481 10.599 8.69992 10.7312 8.23024C10.8633 7.76056 10.8907 7.26757 10.8113 6.78614C10.5705 5.81356 10.4273 4.81939 10.3838 3.81839C10.4098 3.55912 10.5079 3.3123 10.6669 3.10591C10.826 2.89952 11.0397 2.74181 11.2838 2.65064C12.2759 2.28391 13.2983 2.00533 14.3393 1.81814C14.5895 1.74803 14.8541 1.74803 15.1043 1.81814C15.1381 2.21639 15.2618 2.59889 15.4643 2.94314C15.7186 3.56864 16.1168 4.12214 16.6321 4.56089C17.1608 5.02439 17.8201 5.31239 18.5198 5.39339C19.3762 5.53767 20.2557 5.36145 20.9903 4.89839C22.2053 4.15589 22.9028 2.53814 24.3856 2.13314C24.6556 2.13314 25.1506 2.31314 25.6658 2.53814C26.2208 2.78114 26.7526 3.06614 27.2611 3.39314C27.7561 3.73064 27.9811 3.97814 27.9361 4.31564C27.6901 5.10614 27.3526 5.85464 26.9236 6.56114C26.6349 7.09216 26.4836 7.68697 26.4836 8.29139C26.4836 8.89581 26.6349 9.49063 26.9236 10.0216C27.2678 10.6066 27.7448 11.0971 28.3186 11.4616C29.1061 11.9409 29.9858 12.2536 30.9016 12.3819L32.3416 12.6294L32.6791 14.4946L32.9018 16.1799C32.9243 16.4949 32.9243 16.8099 32.9018 17.1249C32.8887 17.282 32.8427 17.4345 32.7668 17.5726L31.5068 18.0226C30.6829 18.3919 29.9245 18.8926 29.2613 19.5054C28.7755 19.9651 28.3722 20.5046 28.0688 21.1006C27.8637 21.5681 27.7578 22.073 27.7578 22.5834C27.7578 23.0938 27.8637 23.5987 28.0688 24.0661C28.5346 25.1236 29.1488 26.1046 29.8913 26.9889L30.4763 27.8889L29.5313 28.8766C29.1713 29.2141 28.7213 29.7316 28.2263 30.1569C27.7313 30.5844 27.7313 30.6294 27.4388 30.6294C26.8821 30.5666 26.3459 30.3822 25.8683 30.0894C25.2461 29.8024 24.5731 29.6418 23.8883 29.6169C23.0716 29.6416 22.2818 29.9319 21.6428 30.4494C21.0893 30.8589 20.6528 31.4101 20.3828 32.0446C20.0678 33.1366 19.8211 34.2451 19.6426 35.3701C19.5271 35.6895 19.3841 35.9981 19.2151 36.2926L17.6626 36.0001C16.9697 35.9287 16.2851 35.7932 15.6173 35.5951C15.1731 35.5151 14.7736 35.2749 14.4946 34.9201C14.2936 34.4119 14.1868 33.8714 14.1796 33.3249C14.1267 32.7415 14.0004 32.1674 13.7993 31.6171ZM35.4826 27.8214C36.3134 28.3908 36.9864 29.1613 37.4389 30.0611C37.8913 30.9609 38.1085 31.9607 38.0701 32.9671C38.0701 33.7344 37.9328 34.4971 37.6651 35.2171C37.347 36.2628 36.6591 37.157 35.7301 37.7326C34.729 38.3281 33.5639 38.5882 32.4046 38.4751C31.8553 38.4787 31.3151 38.3344 30.8408 38.0573C30.3666 37.7801 29.9756 37.3804 29.7091 36.9001C29.6349 36.7136 29.4914 36.5631 29.3086 36.4801C29.1258 36.3972 28.918 36.3882 28.7288 36.4552C28.5396 36.5221 28.3836 36.6598 28.2937 36.8392C28.2038 37.0187 28.1869 37.226 28.2466 37.4176C28.4831 38.0775 28.8706 38.673 29.378 39.1566C29.8854 39.6402 30.4988 39.9986 31.1693 40.2031C33.079 40.842 35.1604 40.7293 36.9901 39.8881C38.2426 39.1965 39.2361 38.1161 39.8206 36.8101C40.3958 35.5607 40.6288 34.1809 40.4956 32.8119C40.3698 31.4731 39.8861 30.1927 39.0951 29.1052C38.3042 28.0177 37.2351 27.1631 36.0001 26.6311C35.9209 26.5766 35.831 26.5397 35.7364 26.5228C35.6417 26.5058 35.5446 26.5093 35.4514 26.5329C35.3582 26.5565 35.2712 26.5998 35.1961 26.6598C35.121 26.7198 35.0596 26.7951 35.0159 26.8808C34.9723 26.9664 34.9475 27.0604 34.9431 27.1564C34.9387 27.2525 34.9549 27.3483 34.9905 27.4376C35.0262 27.5268 35.0805 27.6075 35.1498 27.674C35.2192 27.7406 35.3019 27.7916 35.3926 27.8236L35.4826 27.8214Z" fill="white"/>
<path d="M50.0018 36.3149C51.0222 35.8475 51.9995 35.2911 52.9223 34.6522C53.3132 34.2339 53.6098 33.7367 53.7922 33.1941C53.9746 32.6515 54.0386 32.0761 53.9798 31.5067C53.6742 29.3388 52.907 27.2618 51.7298 25.4159C51.4077 24.8248 50.9046 24.3525 50.2943 24.0682C49.4579 23.7402 48.5571 23.6093 47.6618 23.6857C47.2329 23.7504 46.7949 23.715 46.3819 23.5823C45.9689 23.4496 45.5923 23.2231 45.2813 22.9207C45.1512 22.7722 45.0571 22.5956 45.0063 22.4048C44.9556 22.214 44.9496 22.014 44.9888 21.8204C45.2063 20.8574 45.3713 19.8839 45.4838 18.8999C45.4924 18.2182 45.3378 17.5443 45.0329 16.9345C44.728 16.3247 44.2816 15.7966 43.7311 15.3944C42.1936 14.4077 40.4308 13.8271 38.6078 13.7069C38.5191 13.6943 38.4287 13.6995 38.342 13.7221C38.2552 13.7448 38.1739 13.7845 38.1027 13.839C38.0314 13.8935 37.9718 13.9616 37.9272 14.0393C37.8826 14.1171 37.8539 14.203 37.8428 14.2919C37.8302 14.3807 37.8354 14.4711 37.8581 14.5578C37.8807 14.6446 37.9205 14.7259 37.9749 14.7971C38.0294 14.8683 38.0975 14.928 38.1752 14.9726C38.253 15.0172 38.3389 15.0459 38.4278 15.0569C39.9856 15.182 41.486 15.7007 42.7883 16.5644C43.1297 16.8297 43.4047 17.1706 43.5917 17.5602C43.7787 17.9499 43.8727 18.3777 43.8661 18.8099C43.8661 19.8899 43.2361 21.0577 43.2586 22.1354C43.2586 22.8217 43.5061 23.4854 43.9561 24.0029C44.3296 24.4844 44.8268 24.8579 45.3961 25.0807C46.2151 25.3777 47.0836 25.5217 47.9566 25.5082C48.7441 25.5082 49.5293 25.5082 50.0018 26.3384C50.8163 27.7244 51.4013 29.2364 51.7321 30.8114C51.8671 31.6664 51.9121 32.4967 51.3946 33.0569C50.8771 33.6194 48.8093 34.1819 47.8441 34.9694C47.3576 35.3436 47.0157 35.8747 46.8766 36.4724C46.7778 36.9002 46.7813 37.3452 46.8868 37.7714C46.9924 38.1975 47.197 38.5928 47.4841 38.9249C47.9461 39.4319 48.4561 39.8879 49.0141 40.2929C49.3268 40.5179 49.6643 40.6979 49.7543 40.9904L49.2368 42.1829C48.6218 43.2119 47.9551 44.2079 47.2366 45.1709C46.8819 45.6837 46.4579 46.1448 45.9766 46.5412L45.2138 46.2937C44.0903 45.6187 42.9218 45.0344 41.7083 44.5409C41.2769 44.4054 40.8203 44.3693 40.3729 44.4356C39.9255 44.5018 39.499 44.6686 39.1253 44.9234C38.5358 45.3194 38.0678 45.8707 37.7753 46.5187C37.4539 47.4814 37.2352 48.4755 37.1228 49.4842C37.1228 50.0017 36.9653 50.4967 36.4276 50.6542C35.8426 50.8072 35.2508 50.9197 34.6523 50.9917C33.6848 51.1042 32.6971 51.1267 31.7093 51.2167L30.4718 51.3967C30.1503 50.9486 29.9139 50.4452 29.7743 49.9117C29.5123 49.023 29.1268 48.1755 28.6291 47.3939C28.3494 46.9952 27.9927 46.6566 27.58 46.3981C27.1672 46.1395 26.7069 45.9663 26.2261 45.8887C25.5397 45.7584 24.8294 45.8781 24.2236 46.2262C23.5004 46.7135 22.8822 47.3409 22.4056 48.0712C21.9781 48.6089 21.5956 49.2367 20.7406 48.9014C20.2872 48.6978 19.8515 48.457 19.4378 48.1814C18.3376 47.4389 17.3476 46.5187 16.2698 45.7987C15.9548 45.5962 15.4373 45.3262 15.0098 45.0337C14.8461 44.9339 14.702 44.805 14.5846 44.6534C14.3821 44.1809 14.8096 43.5284 15.2371 42.9007C15.6713 42.2212 16.2361 41.6317 16.8998 41.1682C17.0101 41.1051 17.103 41.0155 17.17 40.9076C17.237 40.7996 17.276 40.6767 17.2836 40.5499C17.2912 40.423 17.2671 40.2963 17.2135 40.1811C17.1598 40.066 17.0783 39.966 16.9763 39.8902C16.8572 39.7983 16.7129 39.7448 16.5626 39.7367C16.4123 39.7287 16.2631 39.7665 16.1348 39.8452C15.0623 40.5403 14.1695 41.4794 13.5293 42.5857C13.2298 42.9857 13.0255 43.4488 12.9319 43.9396C12.8383 44.4305 12.858 44.9363 12.9893 45.4184C13.1603 45.7604 13.4056 46.0597 13.7093 46.2959C14.1818 46.6987 14.8546 47.0587 15.2146 47.3264C16.2946 48.0689 17.2373 49.0364 18.3151 49.7789C18.8236 50.1569 19.3711 50.4712 19.9576 50.7217C20.5673 51.0277 21.2738 51.0929 21.9331 50.9017C22.8421 50.5687 23.6273 49.9634 24.1808 49.1692C24.6308 48.5842 25.0358 47.8664 25.8886 48.0239C26.0995 48.0635 26.3002 48.1458 26.4781 48.2658C26.6561 48.3857 26.8077 48.5408 26.9236 48.7214C27.3443 49.5022 27.6683 50.3324 27.8888 51.1919C28.1296 51.9952 28.5616 52.7287 29.1466 53.3294C29.4193 53.5648 29.7563 53.7129 30.1141 53.7547C30.7171 53.7727 31.3163 53.7277 31.9118 53.6197C32.9446 53.6197 33.9323 53.6197 34.9448 53.4622C35.7023 53.4022 36.4516 53.2822 37.1926 53.1022C37.9486 52.9312 38.6146 52.4834 39.0578 51.8444C39.5191 51.0142 39.7958 50.0939 39.8678 49.1467C39.9803 48.3614 40.0028 47.5064 40.6981 47.0362C40.9456 46.8562 41.2381 47.0362 41.5531 47.1487C42.5858 47.5762 43.6411 48.3839 44.3836 48.6989C44.9236 48.9419 45.4996 49.0949 46.0913 49.1489C46.4973 49.142 46.8938 49.0254 47.2388 48.8114C48.0421 48.2309 48.7463 47.5267 49.3268 46.7189C50.1368 45.5962 50.8568 44.2934 51.3946 43.3957C51.7861 42.7769 52.0606 42.0907 52.2046 41.3707C52.2909 40.9129 52.2521 40.4402 52.0921 40.0027C51.9894 39.7227 51.837 39.4635 51.6421 39.2377C51.1664 38.7113 50.6302 38.2431 50.0446 37.8427C49.8047 37.6934 49.586 37.5125 49.3943 37.3049C49.3362 37.255 49.2899 37.1927 49.2588 37.1227C49.2277 37.0526 49.2125 36.9766 49.2143 36.8999C49.2818 36.6074 49.6643 36.4949 50.0018 36.3149Z" fill="white"/>
</g>
<defs>
<clipPath id="clip0_397_6445">
<rect width="54" height="54" fill="white"/>
</clipPath>
</defs>
</svg>
