<svg width="48" height="48" viewBox="0 0 48 48" fill="none" xmlns="http://www.w3.org/2000/svg">
<g clip-path="url(#clip0_385_3219)">
<path d="M7.26 14.1799V11.3239C7.26 10.4399 7.26 9.35793 7.142 8.47393C6.964 6.17193 6.67 3.98793 6.414 1.78593C6.40869 1.60346 6.33112 1.43058 6.19835 1.3053C6.06557 1.18003 5.88847 1.11263 5.706 1.11793C5.52353 1.12324 5.35064 1.20081 5.22537 1.33359C5.10009 1.46636 5.03269 1.64346 5.038 1.82593C4.918 4.04593 4.742 6.30993 4.664 8.47393V11.3059C4.664 12.1699 4.802 13.2719 4.802 14.1379C4.802 18.4839 6.768 18.5439 7.122 17.3819C7.26312 16.3208 7.3093 15.2492 7.26 14.1799ZM22.838 14.7099C22.678 15.5359 22.698 22.5759 22.542 26.6879C22.4109 29.813 22.3388 32.9402 22.326 36.0679C22.306 39.1959 22.326 42.8359 22.6 46.2179C22.6057 46.4231 22.6913 46.6179 22.8384 46.761C22.9856 46.904 23.1828 46.984 23.388 46.9839C23.5946 46.9732 23.7892 46.8836 23.9317 46.7337C24.0742 46.5837 24.1538 46.3848 24.154 46.1779C24.154 42.2439 24.568 38.1539 24.804 34.1419C24.98 31.4659 25.118 28.7519 25.118 26.0579C25.058 22.2059 24.798 18.3579 24.332 14.5319C24.194 13.8639 22.956 14.0019 22.838 14.7099ZM6.728 36.0299C6.72808 35.8509 6.65834 35.6788 6.53361 35.5504C6.40888 35.4219 6.23898 35.3471 6.06 35.3419C5.96965 35.3419 5.88018 35.3597 5.79671 35.3943C5.71324 35.4289 5.6374 35.4796 5.57351 35.5434C5.50962 35.6073 5.45895 35.6832 5.42437 35.7666C5.38979 35.8501 5.372 35.9396 5.372 36.0299C5.176 37.3279 4.92 38.5679 4.782 39.8659V43.1699C4.9 44.4479 5.096 45.7059 5.234 47.1019C5.26235 47.2877 5.35632 47.4571 5.49886 47.5796C5.6414 47.702 5.82309 47.7693 6.011 47.7693C6.19891 47.7693 6.3806 47.702 6.52314 47.5796C6.66568 47.4571 6.75964 47.2877 6.788 47.1019C6.926 45.8039 7.142 44.5459 7.24 43.1699V41.5179C7.28 40.9673 7.28 40.4166 7.24 39.8659C7.18 38.5659 6.926 37.3259 6.728 36.0299ZM41.384 13.2159V10.3799C41.384 9.51593 41.384 8.41393 41.264 7.52993C41.07 5.30593 40.774 3.12393 40.518 0.919934C40.518 0.737465 40.4455 0.562469 40.3165 0.433444C40.1875 0.304419 40.0125 0.231934 39.83 0.231934C39.6475 0.231934 39.4725 0.304419 39.3435 0.433444C39.2145 0.562469 39.142 0.737465 39.142 0.919934C39.022 3.14393 38.826 5.32593 38.768 7.54793V10.3999C38.768 11.2859 38.906 12.3679 38.906 13.2319C38.906 17.5799 40.872 17.6379 41.206 16.4779C41.38 15.3979 41.438 14.3059 41.384 13.2159ZM6.984 19.4099C6.41249 19.3447 5.834 19.3785 5.274 19.5099C1.084 20.3139 -0.470001 23.4399 0.119999 26.1939C1.694 33.5499 16.13 33.1159 13.574 24.3639C13.1153 22.9624 12.2373 21.7355 11.0587 20.8492C9.88012 19.9628 8.45778 19.4617 6.984 19.4099ZM2.364 25.8399C2.108 23.8739 3.326 22.0839 6.296 21.9059C7.39879 21.7562 8.5197 21.9864 9.47426 22.5586C10.4288 23.1307 11.1602 24.0108 11.548 25.0539C13.788 31.3279 3.052 31.6219 2.362 25.8399M22.6 1.23793C17.784 1.76793 16.092 5.16993 16.7 8.13993C17.0061 9.48744 17.7522 10.6947 18.8205 11.5711C19.8889 12.4475 21.2187 12.9432 22.6 12.9799C26.652 13.2939 31.864 12.5079 30.056 6.31193C29.5611 4.75326 28.5573 3.40588 27.2053 2.48582C25.8533 1.56577 24.2315 1.12632 22.6 1.23793ZM24 11.6799C22.8183 11.7951 21.6376 11.451 20.7029 10.7188C19.7682 9.98672 19.1512 8.92283 18.98 7.74793C18.724 5.77993 19.944 3.98993 22.914 3.81393C24.0181 3.6728 25.1375 3.90867 26.0907 4.48332C27.044 5.05796 27.7753 5.9377 28.166 6.97993C29.994 12.2119 23.996 11.6599 23.996 11.6799M41.108 18.5259C40.5353 18.4773 39.9586 18.5171 39.398 18.6439C35.208 19.4499 33.654 22.5779 34.244 25.3299C35.818 32.6859 50.254 32.2539 47.698 23.5019C47.2402 22.0982 46.3629 20.8686 45.1846 19.9788C44.0063 19.0891 42.5835 18.582 41.108 18.5259ZM36.408 24.9559C36.152 22.9899 37.372 21.1999 40.342 21.0239C41.4521 20.8737 42.5803 21.1052 43.5415 21.6805C44.5027 22.2557 45.2398 23.1406 45.632 24.1899C47.912 30.4639 37.174 30.7579 36.408 24.9559ZM40.852 35.1639C40.8526 34.9847 40.783 34.8124 40.6582 34.6838C40.5333 34.5553 40.3631 34.4806 40.184 34.4759C40.0936 34.4759 40.0042 34.4937 39.9207 34.5283C39.8372 34.5629 39.7614 34.6136 39.6975 34.6774C39.6336 34.7413 39.5829 34.8172 39.5484 34.9007C39.5138 34.9841 39.496 35.0736 39.496 35.1639C39.3 36.4439 39.044 37.7019 38.906 38.9999V42.2839C39.024 43.5839 39.22 44.8399 39.358 46.2179C39.3864 46.4037 39.4803 46.5731 39.6229 46.6956C39.7654 46.818 39.9471 46.8853 40.135 46.8853C40.3229 46.8853 40.5046 46.818 40.6471 46.6956C40.7897 46.5731 40.8836 46.4037 40.912 46.2179C41.05 44.9179 41.266 43.6599 41.364 42.2839V40.6519C41.4019 40.1019 41.4019 39.5499 41.364 38.9999C41.304 37.7799 41.05 36.4619 40.852 35.1639Z" fill="white"/>
</g>
<defs>
<clipPath id="clip0_385_3219">
<rect width="48" height="48" fill="white"/>
</clipPath>
</defs>
</svg>
