<svg width="48" height="48" viewBox="0 0 48 48" fill="none" xmlns="http://www.w3.org/2000/svg">
<g clip-path="url(#clip0_385_3223)">
<path d="M47.964 5.48605C47.9329 5.40172 47.8853 5.32439 47.8241 5.25855C47.7629 5.19271 47.6893 5.13965 47.6075 5.10246C47.5256 5.06526 47.4372 5.04465 47.3474 5.04184C47.2575 5.03902 47.168 5.05405 47.084 5.08605C46.8536 5.16922 46.6427 5.29852 46.464 5.46605C46.184 5.70605 45.884 6.06605 45.704 6.22605L42.464 9.20605C41.262 10.408 40.042 11.628 38.942 12.93C37.842 14.23 36.822 15.61 35.78 16.93C35.06 17.95 34.34 19.05 33.5 20.05C32.9838 20.6966 32.4079 21.2933 31.78 21.832C31.7157 21.878 31.661 21.9362 31.6191 22.0033C31.5773 22.0704 31.549 22.1451 31.536 22.2231C31.523 22.3011 31.5255 22.3809 31.5434 22.4579C31.5612 22.5349 31.594 22.6077 31.64 22.672C31.686 22.7364 31.7442 22.7911 31.8112 22.8329C31.8783 22.8748 31.953 22.903 32.031 22.916C32.109 22.929 32.1888 22.9265 32.2658 22.9087C32.3429 22.8908 32.4157 22.858 32.48 22.812C33.2427 22.3014 33.956 21.728 34.62 21.092C35.6 20.172 36.5 19.092 37.38 18.212C38.26 17.332 38.74 16.712 39.38 15.932C40.02 15.15 41.202 13.77 42.102 12.688L43.962 10.548L46.724 7.30805L47.524 6.38805C47.6998 6.32452 47.8441 6.19508 47.9262 6.02712C48.0083 5.85915 48.0219 5.66383 47.964 5.48605Z" fill="white"/>
<path d="M5.448 18.9919C5.928 18.4519 6.428 17.9119 6.888 17.3519C7.688 16.4119 8.448 15.3499 9.29 14.4499C9.82067 13.8632 10.394 13.3232 11.01 12.8299C11.306 12.5846 11.6193 12.3646 11.95 12.1699C12.2913 11.9726 12.6447 11.8059 13.01 11.6699C13.9278 11.2972 14.9327 11.1933 15.9073 11.3704C16.8819 11.5474 17.786 11.9982 18.514 12.6699C21.034 14.6699 22.894 18.4099 24.656 20.8319L27.356 24.4719L30.578 28.4739C32.6598 31.2116 35.2564 33.5161 38.222 35.2579C39.3478 35.8834 40.6639 36.0741 41.9209 35.7939C43.1779 35.5138 44.2884 34.7822 45.042 33.7379C45.1371 33.5951 45.1765 33.4223 45.1526 33.2524C45.1287 33.0825 45.0433 32.9273 44.9125 32.8162C44.7817 32.7052 44.6147 32.646 44.4431 32.65C44.2716 32.654 44.1075 32.7209 43.982 32.8379C43.4047 33.5927 42.5692 34.108 41.6355 34.2852C40.7019 34.4623 39.7357 34.2888 38.922 33.7979C36.244 32.0627 33.9323 29.819 32.118 27.1939L29.118 23.1939L26.518 19.4919C24.656 16.9119 22.656 13.0499 19.934 10.8879C18.9011 9.98183 17.6281 9.39397 16.2686 9.19524C14.909 8.9965 13.521 9.19539 12.272 9.7679C11.8 9.95456 11.3533 10.1879 10.932 10.4679C10.5093 10.7332 10.1093 11.0266 9.732 11.3479C9.052 11.9612 8.43133 12.6279 7.87 13.3479C7.07 14.3479 6.35 15.3499 5.59 16.4099L5.39 16.6499C2.368 19.8299 4.57 19.9899 5.45 18.9899" fill="white"/>
<path d="M26.216 28.7961C25.2667 30.035 24.2379 31.2108 23.136 32.3161C22.0604 33.3985 20.8731 34.3639 19.594 35.1961C19.1473 35.5041 18.6807 35.7774 18.194 36.0161C17.9034 36.1825 17.5628 36.2393 17.234 36.1761C16.7858 36.0163 16.419 35.6856 16.214 35.2561C15.254 33.7761 14.714 31.5761 13.852 30.4561C13.2202 29.5278 12.2955 28.8381 11.2255 28.4973C10.1556 28.1565 9.0023 28.1842 7.95 28.5761C7.02332 28.9078 6.15315 29.38 5.37 29.9761C3.248 31.5961 3.69 32.7161 5.37 31.9761C6.31455 31.2435 7.39559 30.7064 8.55 30.3961C9.21062 30.2228 9.90973 30.2697 10.5413 30.5296C11.1729 30.7894 11.7026 31.2481 12.05 31.8361C12.87 32.9361 13.33 35.0761 14.272 36.5161C14.7953 37.4165 15.6491 38.0774 16.652 38.3581C17.3256 38.4882 18.0228 38.4115 18.652 38.1381C19.3643 37.7941 20.0358 37.3715 20.654 36.8781C21.7367 36.0821 22.73 35.1888 23.634 34.1981C24.9579 32.7596 26.1688 31.221 27.256 29.5961C27.3096 29.523 27.348 29.4398 27.369 29.3516C27.39 29.2634 27.3931 29.1719 27.3782 29.0824C27.3633 28.993 27.3307 28.9074 27.2822 28.8307C27.2337 28.7541 27.1704 28.6879 27.096 28.6361C26.9537 28.5559 26.7878 28.528 26.6271 28.5572C26.4664 28.5865 26.321 28.671 26.216 28.7961Z" fill="white"/>
<path d="M46.964 45.0799C44.724 44.9799 42.244 44.8599 39.782 44.7799H34.98C30.058 44.7799 25.156 44.4399 20.254 44.3599C18.134 44.3599 15.994 44.3599 13.852 44.5399L4.668 45.0399H2.368C2.088 45.0399 2.928 40.8199 2.808 34.2379C2.808 34.2379 2.128 19.5319 2.148 18.7919C2.148 16.7919 2.268 14.7899 2.268 12.7899V8.7879C2.088 6.9879 1.748 5.1879 1.688 3.4259C1.64119 2.71772 1.67474 2.00652 1.788 1.3059C1.80228 1.22698 1.8006 1.14601 1.78305 1.06775C1.7655 0.989503 1.73244 0.915562 1.68583 0.850304C1.63922 0.785046 1.58 0.729794 1.51167 0.687815C1.44333 0.645836 1.36728 0.617982 1.288 0.605898C1.21052 0.591429 1.13095 0.59237 1.05383 0.608665C0.976708 0.62496 0.903556 0.65629 0.83855 0.700866C0.773544 0.745441 0.717958 0.802389 0.674968 0.868454C0.631978 0.934519 0.602426 1.00841 0.588001 1.0859C0.460361 1.87266 0.400142 2.66889 0.408001 3.4659C0.408001 5.2259 0.708001 7.0459 0.748001 8.7459V12.7499C0.748001 14.7499 0.528001 16.7499 0.408001 18.7499C0.0680006 23.9939 0.628001 29.1959 0.588001 34.4359C0.588001 40.8599 -0.0719994 45.0399 0.00800064 45.4819C0.0741213 45.8488 0.232409 46.1929 0.468001 46.4819C0.888001 46.9379 1.454 47.2339 2.068 47.3219C2.978 47.4339 3.898 47.4339 4.808 47.3219L14.052 46.7019C16.052 46.5019 18.192 46.4219 20.254 46.4019C25.176 46.4019 30.078 46.5819 35.02 46.4019H39.76C42.202 46.4019 44.684 46.5019 46.904 46.5419C47.0668 46.5141 47.2146 46.4295 47.3211 46.3033C47.4277 46.177 47.4861 46.0171 47.4861 45.8519C47.4861 45.6867 47.4277 45.5268 47.3211 45.4005C47.2146 45.2743 47.0668 45.1897 46.904 45.1619L46.964 45.0799Z" fill="white"/>
</g>
<defs>
<clipPath id="clip0_385_3223">
<rect width="48" height="48" fill="white"/>
</clipPath>
</defs>
</svg>
